<svg width="461" height="80" viewBox="0 0 461 80" fill="none" xmlns="http://www.w3.org/2000/svg">
<g clip-path="url(#clip0_1166_2945)">
<path d="M50.3403 32.0541H27.961V36.8378H30.583C30.583 36.8378 33.0196 37.1622 33.0196 39.7838V62.1892C33.0196 62.1892 32.8342 64.5135 31.0597 65.1622H27.961V69.7297H50.3403V65.1622H47.1357C47.1357 65.1622 45.2288 64.4865 45.2288 61.7027V39.7297C45.2288 39.7297 45.0434 36.8919 47.533 36.8919H50.3403V32.0541ZM3.72789 32.0541H26.1071V36.8378H23.4852C23.4852 36.8378 21.0486 37.1622 21.0486 39.7838V62.1892C21.0486 62.1892 21.234 64.5135 23.0085 65.1622H26.1071V69.7297H3.72789V65.1622H6.93249C6.93249 65.1622 8.83936 64.4865 8.83936 61.7027V39.7297C8.83936 39.7297 9.02475 36.8919 6.53522 36.8919H3.72789V32.0541ZM74.5735 32.0541H52.1942V36.8378H54.8162C54.8162 36.8378 57.2527 37.1622 57.2527 39.7838V62.1892C57.2527 62.1892 57.0673 64.5135 55.2929 65.1622H52.1942V69.7297H74.5735V65.1622H71.3689C71.3689 65.1622 69.462 64.4865 69.462 61.7027V39.7297C69.462 39.7297 69.2766 36.8919 71.7661 36.8919H74.5735V32.0541ZM77.3014 29.6216L39.1639 10L1 29.6216H77.3014Z" fill="#14156D"/>
<path d="M118.061 30.7568H114.512V45.5405C114.512 47.0541 114.168 47.8919 113.267 48.3784C112.34 48.8108 110.91 48.9189 108.738 48.9189C108.632 48.1622 108.182 46.9189 107.758 46.1622C109.321 46.2162 110.698 46.2162 111.122 46.1892C111.599 46.1892 111.784 46.027 111.784 45.5405V34.3784C109.877 38.3514 107.414 41.8919 104.713 44.1081C104.262 43.5135 103.441 42.5676 102.806 42.0811C106.01 39.7297 108.95 35.2973 110.778 30.7568H103.6V28.1081H111.81V21.0811H114.565V28.1081H118.114V30.7568H118.061ZM100.396 41.7568C101.64 43.2162 103.018 45.2162 103.6 46.5946L101.27 47.8378C100.687 46.4324 99.3628 44.2973 98.1445 42.7838L100.396 41.7568ZM100.025 35.5405H94.7281V39H100.025V35.5405ZM100.025 30H94.7281V33.4054H100.025V30ZM100.025 24.4595H94.7281V27.8108H100.025V24.4595ZM102.726 41.2973H92.0796V22.1351H102.726V41.2973ZM96.6879 42.4324C95.7609 44.8919 94.2248 47.3784 92.6358 48.9459C92.1326 48.4865 91.0202 47.6757 90.4376 47.2703C91.9737 45.9189 93.3244 43.8649 94.0395 41.7568L96.6879 42.4324Z" fill="#14156D"/>
<path d="M142.612 36.2162C142.426 36.0541 142.267 35.9189 142.082 35.7568L143.194 35.027H139.487V36.2703L142.612 36.2162ZM143.592 32.5405H139.487V33.7027H143.592V32.5405ZM139.487 31.2973H143.592V30.1892H139.487V31.2973ZM137.182 32.5405H133.236V33.7027H137.182V32.5405ZM133.263 31.2973H137.209V30.1892H133.263V31.2973ZM135.011 44.2432C134.534 43.4324 133.554 42.2432 132.68 41.4054L134.402 40.4865C135.329 41.2703 136.361 42.4054 136.865 43.1892L135.011 44.2432ZM143.856 35.027C144.916 35.8378 146.081 36.973 146.69 37.7027L145.234 38.8649C144.942 38.4595 144.519 38.0541 144.068 37.5946C139.01 37.7568 133.898 37.8919 130.27 37.9459L130.138 36.3243C132.071 36.3243 134.534 36.2973 137.182 36.2703V35.027H131.065V28.8649H137.182V27.8108H130.085V26.1351H137.182V24.8919H139.487V26.1351H146.743V27.8108H139.487V28.8649H145.843V35H143.856V35.027ZM147.167 40.4865H143.115V42.9189C143.115 43.9189 142.877 44.2703 142.161 44.4865C141.42 44.7297 140.308 44.7297 138.586 44.7297C138.507 44.2162 138.242 43.6757 138.003 43.2162C139.01 43.2432 140.096 43.2432 140.387 43.2432C140.705 43.2162 140.811 43.1351 140.811 42.8378V40.4865H129.74V38.8378H140.811V37.8378H143.141V38.8378H147.194V40.4865H147.167ZM148.015 24.4054H128.866V45.1892H148.015V24.4054ZM150.663 22.2162V48.8378H148.015V47.4054H128.866V48.9459H126.324V22.1892H150.663V22.2162Z" fill="#14156D"/>
<path d="M183.424 48.8919C183.186 48.0811 182.735 47.0811 182.206 46.027C171.639 47.3514 170.314 47.5946 169.414 48C169.255 47.3784 168.778 45.973 168.46 45.1622C169.096 45 169.652 44.2973 170.367 43.1892C171.003 42.3243 172.724 39.3784 174.022 36.1622H167.878V33.4865H175.24V28.5676H169.123V25.8919H175.24V21H178.074V25.8919H184.431V28.5676H178.074V33.4865H185.543V36.1622H177.306C175.929 39.1622 174.234 42.1622 172.566 44.5946L180.882 43.7027C180.14 42.4595 179.293 41.2432 178.524 40.1081L180.749 39.027C182.815 41.6757 184.987 45.2162 185.861 47.5946L183.424 48.8919ZM162.237 21.3243C164.117 22.1081 166.58 23.4595 167.851 24.4324L166.209 26.7568C165.044 25.7027 162.607 24.2703 160.674 23.3784L162.237 21.3243ZM160.012 46.6486C161.627 44.3784 163.932 40.4595 165.653 37L167.692 38.8919C166.13 42.0541 164.17 45.7027 162.422 48.5676L160.012 46.6486ZM164.514 34.8108C163.349 33.8108 160.939 32.4054 159.032 31.5135L160.489 29.3784C162.369 30.1351 164.806 31.4595 166.05 32.4595L164.514 34.8108Z" fill="#14156D"/>
<path d="M208.213 21.0811C208.187 22.2432 208.16 23.8108 208.002 25.6216C208.425 29.4324 210.253 41.5676 220.635 46.2703C219.84 46.9189 218.993 47.9189 218.595 48.6757C211.577 45.2973 208.346 38.5946 206.757 33.1622C205.274 38.8919 202.096 45.027 195.369 48.8378C194.892 48.1081 193.991 47.1892 193.064 46.5946C205.247 40.1351 204.929 25.973 205.035 21.1081H208.213V21.0811Z" fill="#14156D"/>
<path d="M234.115 42.1892H248.099V40.4324H234.115V42.1892ZM234.115 38.7027H248.099V37H234.115V38.7027ZM234.115 35.2973H248.099V33.5676H234.115V35.2973ZM235.492 24.7838H228.183V22.6486H235.492V24.7838ZM245.662 44C248.734 45.027 252.045 46.3243 254.084 47.3243L251.568 48.8649C249.741 47.8649 246.616 46.4865 243.544 45.4324L245.265 44H236.34L238.829 45.1622C236.419 46.6486 232.685 48.1081 229.692 48.973C229.216 48.4054 228.236 47.3514 227.626 46.8378C230.672 46.2432 234.168 45.1892 236.207 44H231.414V31.7568H250.853V44H245.662ZM245.901 25.5405C245.901 25.7568 245.901 26 245.848 26.2703C247.463 27.9459 250.641 28.973 254.588 29.2162C254.058 29.7838 253.369 30.8108 253.104 31.5405C249.714 31.0541 246.986 29.9459 245.106 28.1892C244.047 29.5946 241.663 30.8919 236.552 31.6216C236.287 30.973 235.651 30.027 235.148 29.5135H227.573V27.3243H236.234V29.3243C242.696 28.4595 243.385 26.7568 243.385 25.4595V25.0541H240.895C240.233 26.1351 239.491 27.1081 238.723 27.8919C238.273 27.4865 237.267 26.7568 236.631 26.4595C238.194 25.0811 239.412 22.973 240.048 20.8649L242.511 21.4054C242.325 21.9189 242.14 22.4054 241.954 22.9189H251.25L251.648 22.8108L253.555 23.4595C252.813 25.0811 251.807 26.8378 250.959 27.973L248.787 27.1892C249.185 26.6486 249.635 25.8649 250.032 25.0811H245.874V25.5405H245.901Z" fill="#14156D"/>
<path d="M285.839 22.6216C285.627 33.8919 285.601 45.1892 287.004 45.6216C287.19 45.6757 287.402 43.7027 287.481 41.6757C287.905 42.3784 288.593 43.4054 288.991 43.8378C288.62 48.1622 287.402 49.1351 285.865 48.4595C282.979 47.4324 283.032 37.2432 283.058 25.2973H278.635V33.8919H282.131V36.5135H278.635V48.9459H276.04V36.5135H272.332V33.8919H276.04V25.2973H272.703V22.6216H285.839ZM264.996 44.8649H269.101V40.5135H264.996V44.8649ZM271.326 47.1622H264.996V48.5405H262.824V38.2432H271.326V47.1622ZM262.824 34.1351H271.326V36.3243H262.824V34.1351ZM262.824 30.1081H271.299V32.3243H262.824V30.1081ZM272.358 28.3243H261.606V26.0811H266.717C266.267 24.9459 265.42 23.2162 264.678 21.973L266.664 20.8378C267.406 22.1081 268.306 23.7297 268.73 24.8108L266.77 26.0541H272.358V28.3243Z" fill="#14156D"/>
<path d="M322.679 43.8649V46.7027H295.982V43.8649H307.636V27.1892H297.572V24.2703H321.116V27.1892H310.734V43.8649H322.679Z" fill="#14156D"/>
<path d="M348.183 42.9459C350.805 43.9189 354.433 45.3784 356.446 46.3514L354.592 48C352.738 47.0541 349.11 45.4324 346.382 44.3784L348.183 42.9459ZM339.178 28.4324C339.788 29.2973 340.344 30.4054 340.582 31.1081L339.231 31.4595H347.362L346.303 31.1351C346.859 30.3784 347.548 29.2162 347.971 28.4324H339.178ZM356.499 39.4865V41.8649H344.74V48.9189H342.039V41.8649H330.465V39.4865H342.039V37.6486H333.246V35.5405H342.039V33.7027H331.789V31.4865H337.775C337.483 30.7297 336.98 29.6486 336.451 28.8649L338.172 28.4324H330.571V26.1892H335.02C334.57 25 333.67 23.3243 332.849 22.0811L335.259 21.2162C336.186 22.5135 337.219 24.3784 337.642 25.5676L336.053 26.1892H339.39V20.9459H341.986V26.1892H344.926V20.9459H347.548V26.1892H350.805L349.64 25.7838C350.355 24.5676 351.282 22.6486 351.732 21.2703L354.592 22.027C353.798 23.5135 352.897 25.0541 352.129 26.1622H356.393V28.4054H348.58L350.911 29.027C350.249 29.9459 349.56 30.7568 348.978 31.4595H355.307V33.6757H344.74V35.5135H353.904V37.6486H344.74V39.4865H356.499ZM340.9 44.1081C338.808 45.7568 335.1 47.3243 332.028 48.027C331.63 47.4054 330.915 46.4865 330.359 45.9459C333.378 45.4865 336.98 44.3784 338.887 43.1081L340.9 44.1081Z" fill="#14156D"/>
<path d="M368.973 25.2162C368.02 26.7297 366.987 28.1081 365.928 29.1351C365.53 28.6757 364.577 27.7027 364.047 27.2703C365.795 25.6486 367.49 23.1892 368.391 20.7297L370.854 21.4595C370.642 21.973 370.43 22.4595 370.165 22.973H377.289V25.1892H372.284C373.184 25.973 374.138 26.9459 374.667 27.5946L372.867 29.2162C372.257 28.4054 370.986 27.0811 370.006 26.1351L371.119 25.1892H368.973V25.2162ZM379.302 39.2703C381.712 41.7568 386.268 44.3243 391.485 45.3513C390.929 45.9459 390.108 47.1081 389.737 47.8378C385.5 46.7568 381.818 44.4865 379.302 42.2432V48.8919H376.336V42.1622C373.502 44.8378 369.688 46.9189 365.769 48C365.398 47.2973 364.603 46.2162 364.047 45.6216C368.947 44.5135 373.741 42.027 376.336 38.8919V36.5135H369.715V42.1081H366.802V34.1081H376.336V32.1351H364.789V29.6486H376.336V27.8649H378.746C378.243 27.4054 377.395 26.7297 376.892 26.4054C378.508 25.027 379.885 22.9459 380.6 20.7297L383.142 21.3784C382.957 21.9189 382.719 22.4324 382.507 23H391.061V25.2162H385.208C386.162 25.9459 387.195 26.8919 387.804 27.5676L385.923 29.2432C385.261 28.4324 383.963 27.1622 382.878 26.2973L384.175 25.2432H381.289C380.626 26.2432 379.911 27.1622 379.17 27.8919H379.302V29.6757H390.373V32.1351H379.302V34.1081H388.757V39.4595C388.757 40.7297 388.492 41.3243 387.618 41.6757C386.691 42.027 385.447 42.0811 383.805 42.0811C383.619 41.3513 383.169 40.4595 382.851 39.8378C383.963 39.8919 385.155 39.8919 385.447 39.8649C385.817 39.8649 385.923 39.7838 385.923 39.4595V36.5135H379.302V39.2703Z" fill="#14156D"/>
<path d="M415.745 37.8378H411.083V40.5946H415.745V37.8378ZM415.745 33H411.083V35.6486H415.745V33ZM415.745 28.1622H411.083V30.8108H415.745V28.1622ZM408.62 31C407.932 31.9459 407.27 32.8378 406.555 33.5946C406.316 33.1081 405.575 31.8919 405.098 31.3514C407.455 28.8649 409.574 25.0541 410.845 21.1892L413.176 21.8919C412.699 23.2432 412.143 24.5946 411.507 25.9189H416.725C416.354 24.7297 415.692 23.2973 415.03 22.1351L417.36 21.4324C418.128 22.8378 419.002 24.6486 419.4 25.9189H424.405V28.1892H418.208V30.8108H423.452V33H418.208V35.6486H423.478V37.8378H418.208V40.5946H424.988V42.9459H408.647V31H408.62ZM403.085 27.1351C402.291 25.8919 400.622 23.7838 399.271 22.2973L401.364 21C402.741 22.4595 404.383 24.3784 405.204 25.5946L403.085 27.1351ZM406.343 35.8649C405.919 38.4054 405.283 40.6486 404.489 42.5676C406.396 45.5405 409.865 46 414.924 46C418.049 46 422.604 45.8378 425.782 45.5405C425.359 46.1622 425.014 47.4324 424.882 48.1892C421.995 48.3784 418.234 48.4595 414.897 48.4595C409.256 48.4595 405.707 47.8378 403.429 44.7297C402.317 46.5946 401.019 47.9459 399.51 49C399.166 48.4595 398.265 47.4865 397.682 47.0811C400.516 45.3243 402.503 42.1351 403.535 37.6486H400.622C399.881 37.6486 399.06 37.8649 398.821 38.1081C398.662 37.4595 398.133 36.2162 397.868 35.7027C398.318 35.5946 398.821 35.3784 399.324 34.7568C399.96 34.1351 401.496 32.0541 402.688 30.2973H398.344V27.973H404.462L404.807 27.8108L406.528 28.6216C405.363 30.3243 403.297 33.2973 401.681 35.3784H404.515L404.966 35.3243L406.343 35.8649Z" fill="#14156D"/>
<path d="M453.564 31.4865H446.943V35.6757H450.28L448.426 35.1081C448.956 34.1351 449.592 32.5946 449.91 31.5405L452.24 32.2162C451.578 33.5135 450.916 34.8108 450.386 35.6757H453.538V31.4865H453.564ZM449.38 26.4054C448.135 25.6216 447.023 24.7568 446.096 23.8378C445.116 24.7568 444.004 25.6216 442.812 26.4054H449.38ZM451.71 44.3243H440.296V46.027H451.71V44.3243ZM440.296 42.3784H451.71V40.7027H440.296V42.3784ZM441.593 31.6757C442.256 32.7027 442.918 34.1081 443.103 35.027L441.143 35.7027H444.666V31.4865H438.203V35.6757H441.064C440.852 34.7297 440.296 33.3243 439.66 32.2703L441.593 31.6757ZM437.541 38.7568H454.544V48.7838H451.71V47.973H440.296V48.9189H437.541V38.7568ZM455.895 29.6216C454.279 29.0541 452.637 28.3243 451.128 27.4595V28.3513H440.799V27.6216C439.422 28.4054 437.965 29.0541 436.482 29.6216H455.895ZM448.003 21.6757C447.844 21.8649 447.711 22.0811 447.526 22.2432C450.307 24.8649 455.339 27.1351 459.974 28.1892C459.417 28.7027 458.623 29.7027 458.226 30.3784C457.511 30.1622 456.742 29.9189 456.001 29.6486V37.5405H435.846V29.8649C435.105 30.1351 434.39 30.3784 433.648 30.5946C433.41 30.0541 432.642 28.8919 432.165 28.4054C437.568 27 442.838 24.3784 445.54 20.8378L448.003 21.6757Z" fill="#14156D"/>
<path d="M94.1719 57.5135H91.55V69.7297H94.1719V57.5135Z" fill="#14156D"/>
<path d="M99.866 57.5135L104.872 65.7027H104.898V57.5135H107.361V69.7027H104.739L99.7601 61.5405H99.7336V69.7027H97.2706V57.5135H99.866Z" fill="#14156D"/>
<path d="M112.446 66.7027C112.605 67 112.79 67.2162 113.029 67.4054C113.267 67.5676 113.558 67.7027 113.876 67.8108C114.194 67.8919 114.538 67.9459 114.883 67.9459C115.121 67.9459 115.359 67.9189 115.651 67.8919C115.916 67.8649 116.18 67.7838 116.419 67.6486C116.657 67.5405 116.843 67.3784 117.001 67.1892C117.16 67 117.24 66.7297 117.24 66.4324C117.24 66.1081 117.134 65.8378 116.922 65.6216C116.71 65.4054 116.445 65.2432 116.101 65.1081C115.757 64.973 115.386 64.8649 114.962 64.7568C114.538 64.6486 114.115 64.5405 113.664 64.4054C113.214 64.2973 112.79 64.1622 112.367 63.973C111.943 63.8108 111.572 63.5946 111.228 63.3243C110.884 63.0541 110.619 62.7297 110.407 62.3514C110.195 61.9459 110.089 61.4865 110.089 60.9189C110.089 60.2973 110.221 59.7568 110.486 59.2973C110.751 58.8378 111.095 58.4595 111.519 58.1351C111.943 57.8378 112.42 57.5946 112.949 57.4595C113.479 57.3243 114.035 57.2432 114.565 57.2432C115.2 57.2432 115.783 57.3243 116.366 57.4595C116.948 57.5946 117.452 57.8378 117.902 58.1622C118.352 58.4865 118.696 58.8919 118.961 59.3784C119.226 59.8649 119.359 60.4595 119.359 61.1892H116.816C116.79 60.8378 116.71 60.5135 116.604 60.2703C116.472 60.027 116.313 59.8378 116.101 59.7027C115.889 59.5676 115.651 59.4595 115.386 59.4054C115.121 59.3514 114.803 59.3243 114.485 59.3243C114.274 59.3243 114.062 59.3514 113.85 59.3784C113.638 59.4324 113.453 59.5135 113.267 59.6216C113.082 59.7297 112.949 59.8919 112.843 60.0541C112.737 60.2162 112.684 60.4324 112.684 60.7027C112.684 60.9459 112.737 61.1351 112.817 61.2703C112.896 61.4054 113.082 61.5405 113.347 61.6757C113.611 61.8108 113.982 61.9189 114.432 62.0541C114.883 62.1892 115.492 62.3514 116.26 62.5405C116.498 62.5946 116.79 62.6757 117.187 62.7838C117.584 62.8919 117.981 63.1081 118.379 63.3513C118.776 63.6216 119.12 63.973 119.385 64.4054C119.676 64.8378 119.809 65.4054 119.809 66.0811C119.809 66.6486 119.703 67.1622 119.491 67.6486C119.279 68.1351 118.961 68.5405 118.538 68.8919C118.114 69.2432 117.611 69.5135 116.975 69.7027C116.366 69.8919 115.651 70 114.83 70C114.168 70 113.532 69.9189 112.923 69.7568C112.287 69.5946 111.758 69.3243 111.281 68.973C110.804 68.6216 110.433 68.1622 110.142 67.6216C109.851 67.0811 109.718 66.4324 109.745 65.6757H112.234C112.234 66.0811 112.314 66.4324 112.446 66.7027Z" fill="#14156D"/>
<path d="M121.133 59.7568V57.5135H130.932V59.7568H127.357V69.7027H124.708V59.7568H121.133Z" fill="#14156D"/>
<path d="M135.673 57.5135H133.051V69.7297H135.673V57.5135Z" fill="#14156D"/>
<path d="M137.818 59.7568V57.5135H147.617V59.7568H144.042V69.7027H141.42V59.7568H137.818Z" fill="#14156D"/>
<path d="M158.555 68.7838C157.655 69.5946 156.41 70 154.795 70C153.179 70 151.908 69.5946 151.034 68.8108C150.133 68.027 149.71 66.7838 149.71 65.1081V57.5135H152.331V65.1081C152.331 65.4324 152.358 65.7568 152.411 66.0811C152.464 66.4054 152.57 66.6757 152.755 66.9189C152.941 67.1622 153.179 67.3784 153.497 67.5135C153.815 67.6757 154.238 67.7568 154.768 67.7568C155.695 67.7568 156.357 67.5405 156.701 67.1081C157.072 66.6757 157.231 66.027 157.231 65.1081V57.5135H159.906V65.1081C159.906 66.7567 159.456 67.973 158.555 68.7838Z" fill="#14156D"/>
<path d="M161.998 59.7568V57.5135H171.797V59.7568H168.196V69.7027H165.574V59.7568H161.998Z" fill="#14156D"/>
<path d="M182.868 57.5135V59.7568H176.565V62.3784H182.365V64.4595H176.565V67.4595H183V69.7027H173.916V57.5135H182.868Z" fill="#14156D"/>
<path d="M201.036 57.5135V59.7568H195.263V62.5946H200.268V64.6757H195.263V69.7027H192.614V57.5135H201.036Z" fill="#14156D"/>
<path d="M205.618 65.1622C205.724 65.6486 205.909 66.0811 206.174 66.4595C206.439 66.8378 206.757 67.1622 207.181 67.3784C207.604 67.6216 208.107 67.7297 208.69 67.7297C209.273 67.7297 209.776 67.6216 210.2 67.3784C210.623 67.1351 210.941 66.8378 211.206 66.4595C211.471 66.0811 211.656 65.6216 211.762 65.1622C211.868 64.6757 211.948 64.1622 211.948 63.6757C211.948 63.1351 211.895 62.6216 211.762 62.1081C211.656 61.5946 211.445 61.1622 211.206 60.7568C210.941 60.3513 210.623 60.0541 210.2 59.8108C209.776 59.5676 209.273 59.4595 208.69 59.4595C208.107 59.4595 207.604 59.5676 207.181 59.8108C206.783 60.0541 206.439 60.3513 206.174 60.7568C205.909 61.1351 205.724 61.5946 205.618 62.1081C205.512 62.6216 205.433 63.1351 205.433 63.6757C205.433 64.1622 205.486 64.6757 205.618 65.1622ZM203.208 61.1081C203.473 60.3243 203.87 59.6486 204.373 59.054C204.876 58.4595 205.486 58.027 206.227 57.6757C206.969 57.3513 207.79 57.1892 208.69 57.1892C209.617 57.1892 210.438 57.3513 211.18 57.6757C211.895 58 212.53 58.4595 213.034 59.054C213.537 59.6216 213.908 60.3243 214.199 61.1081C214.464 61.8919 214.596 62.7297 214.596 63.6486C214.596 64.5405 214.464 65.3784 214.199 66.1351C213.934 66.9189 213.537 67.5676 213.034 68.1351C212.53 68.7027 211.921 69.1622 211.18 69.4865C210.465 69.8108 209.617 69.973 208.69 69.973C207.763 69.973 206.942 69.8108 206.227 69.4865C205.486 69.1622 204.876 68.7027 204.373 68.1351C203.87 67.5676 203.499 66.8919 203.208 66.1351C202.943 65.3784 202.811 64.5405 202.811 63.6486C202.811 62.7568 202.943 61.8919 203.208 61.1081Z" fill="#14156D"/>
<path d="M222.621 63.027C223.23 63.027 223.68 62.8919 223.972 62.6216C224.263 62.3513 224.422 61.8919 224.422 61.2973C224.422 60.7027 224.263 60.2703 223.972 60C223.68 59.7297 223.23 59.5946 222.621 59.5946H219.734V63.027H222.621ZM223.574 57.5135C224.104 57.5135 224.607 57.5946 225.031 57.7838C225.455 57.973 225.826 58.1892 226.143 58.5135C226.461 58.8378 226.7 59.1892 226.832 59.5946C226.991 60 227.07 60.4324 227.07 60.8919C227.07 61.6216 226.911 62.2432 226.62 62.7568C226.329 63.2703 225.852 63.6757 225.163 63.9459V63.973C225.481 64.0541 225.746 64.2162 225.958 64.3784C226.17 64.5676 226.355 64.7838 226.488 65.0541C226.62 65.3243 226.726 65.5946 226.779 65.8919C226.832 66.1892 226.885 66.5135 226.911 66.8108C226.938 67 226.938 67.2162 226.938 67.4865C226.938 67.7568 226.964 68 226.991 68.2973C227.017 68.5676 227.07 68.8378 227.123 69.0811C227.176 69.3243 227.282 69.5405 227.388 69.7027H224.793C224.66 69.3243 224.554 68.8649 224.528 68.3243C224.501 67.7838 224.448 67.2703 224.369 66.7838C224.289 66.1351 224.104 65.6757 223.813 65.3784C223.521 65.0811 223.045 64.9459 222.383 64.9459H219.761V69.7027H217.112V57.4865H223.574V57.5135Z" fill="#14156D"/>
<path d="M238.008 57.5135H235.386V69.7297H238.008V57.5135Z" fill="#14156D"/>
<path d="M243.702 57.5135L248.681 65.7027H248.734V57.5135H251.197V69.7027H248.549L243.57 61.5405H243.544V69.7027H241.08V57.5135H243.702Z" fill="#14156D"/>
<path d="M262.665 57.5135V59.7568H256.892V62.5946H261.897V64.6757H256.892V69.7027H254.243V57.5135H262.665Z" fill="#14156D"/>
<path d="M267.247 65.1622C267.353 65.6486 267.565 66.0811 267.803 66.4595C268.068 66.8378 268.386 67.1622 268.81 67.3784C269.233 67.6216 269.737 67.7297 270.319 67.7297C270.902 67.7297 271.405 67.6216 271.829 67.3784C272.253 67.1351 272.57 66.8378 272.835 66.4595C273.1 66.0811 273.285 65.6216 273.391 65.1622C273.497 64.6757 273.577 64.1622 273.577 63.6757C273.577 63.1351 273.524 62.6216 273.391 62.1081C273.285 61.5946 273.1 61.1622 272.835 60.7568C272.57 60.3513 272.253 60.0541 271.829 59.8108C271.405 59.5676 270.902 59.4595 270.319 59.4595C269.737 59.4595 269.233 59.5676 268.81 59.8108C268.412 60.0541 268.068 60.3513 267.803 60.7568C267.538 61.1351 267.353 61.5946 267.247 62.1081C267.141 62.6216 267.062 63.1351 267.062 63.6757C267.062 64.1622 267.115 64.6757 267.247 65.1622ZM264.837 61.1081C265.102 60.3243 265.499 59.6486 266.002 59.054C266.505 58.4865 267.115 58.027 267.856 57.6757C268.598 57.3513 269.419 57.1892 270.319 57.1892C271.246 57.1892 272.067 57.3513 272.809 57.6757C273.524 58 274.159 58.4595 274.663 59.054C275.166 59.6216 275.563 60.3243 275.828 61.1081C276.093 61.8919 276.225 62.7297 276.225 63.6486C276.225 64.5405 276.093 65.3784 275.828 66.1351C275.563 66.9189 275.166 67.5676 274.663 68.1351C274.159 68.7027 273.55 69.1622 272.809 69.4865C272.094 69.8108 271.246 69.973 270.319 69.973C269.392 69.973 268.571 69.8108 267.856 69.4865C267.115 69.1622 266.505 68.7027 266.002 68.1351C265.499 67.5676 265.102 66.8919 264.837 66.1351C264.572 65.3784 264.44 64.5405 264.44 63.6486C264.44 62.7568 264.572 61.8919 264.837 61.1081Z" fill="#14156D"/>
<path d="M284.25 63.027C284.859 63.027 285.309 62.8919 285.601 62.6216C285.892 62.3513 286.051 61.8919 286.051 61.2973C286.051 60.7027 285.892 60.2703 285.601 60C285.309 59.7297 284.859 59.5946 284.25 59.5946H281.363V63.027H284.25ZM285.203 57.5135C285.733 57.5135 286.21 57.5946 286.66 57.7838C287.084 57.973 287.455 58.1892 287.772 58.5135C288.09 58.8108 288.329 59.1892 288.487 59.5946C288.646 60 288.726 60.4324 288.726 60.8919C288.726 61.6216 288.567 62.2432 288.276 62.7568C287.984 63.2703 287.508 63.6757 286.819 63.9459V63.973C287.137 64.0541 287.402 64.2162 287.613 64.3784C287.825 64.5676 288.011 64.7838 288.117 65.0541C288.249 65.3243 288.355 65.5946 288.408 65.8919C288.461 66.1892 288.514 66.5135 288.54 66.8108C288.567 67 288.567 67.2162 288.567 67.4865C288.567 67.7568 288.593 68 288.62 68.2973C288.646 68.5676 288.699 68.8378 288.752 69.0811C288.805 69.3243 288.911 69.5405 289.017 69.7027H286.395C286.263 69.3243 286.157 68.8649 286.13 68.3243C286.104 67.7838 286.051 67.2703 285.971 66.7838C285.892 66.1351 285.707 65.6757 285.415 65.3784C285.124 65.0811 284.647 64.9459 283.985 64.9459H281.363V69.7027H278.741V57.4865H285.203V57.5135Z" fill="#14156D"/>
<path d="M295.294 57.5135L298.101 65.8919H298.128L300.776 57.5135H304.484V69.7027H302.021V61.054H301.994L299.055 69.7027H297.042L294.102 61.1351H294.076V69.7027H291.613V57.5135H295.294Z" fill="#14156D"/>
<path d="M313.674 65L312.164 60.5135H312.138L310.575 65H313.674ZM313.515 57.5135L317.991 69.7297H315.263L314.363 67H309.887L308.96 69.7297H306.311L310.84 57.5135H313.515Z" fill="#14156D"/>
<path d="M317.302 59.7568V57.5135H327.128V59.7568H323.526V69.7027H320.904V59.7568H317.302Z" fill="#14156D"/>
<path d="M331.869 57.5135H329.247V69.7297H331.869V57.5135Z" fill="#14156D"/>
<path d="M337.219 65.1622C337.325 65.6486 337.51 66.0811 337.775 66.4595C338.04 66.8378 338.357 67.1622 338.781 67.3784C339.205 67.6216 339.708 67.7297 340.291 67.7297C340.873 67.7297 341.377 67.6216 341.8 67.3784C342.224 67.1351 342.542 66.8378 342.807 66.4595C343.072 66.0811 343.257 65.6216 343.363 65.1622C343.469 64.6757 343.548 64.1622 343.548 63.6757C343.548 63.1351 343.495 62.6216 343.363 62.1081C343.257 61.5946 343.045 61.1622 342.807 60.7568C342.542 60.3513 342.224 60.0541 341.8 59.8108C341.377 59.5676 340.873 59.4595 340.291 59.4595C339.708 59.4595 339.205 59.5676 338.781 59.8108C338.384 60.0541 338.04 60.3513 337.775 60.7568C337.51 61.1351 337.325 61.5946 337.219 62.1081C337.113 62.6216 337.033 63.1351 337.033 63.6757C337.06 64.1622 337.113 64.6757 337.219 65.1622ZM334.809 61.1081C335.073 60.3243 335.471 59.6486 335.974 59.054C336.477 58.4865 337.086 58.027 337.828 57.6757C338.569 57.3513 339.39 57.1892 340.291 57.1892C341.218 57.1892 342.039 57.3513 342.78 57.6757C343.495 58 344.131 58.4595 344.634 59.054C345.137 59.6216 345.508 60.3243 345.8 61.1081C346.064 61.8919 346.197 62.7297 346.197 63.6486C346.197 64.5405 346.064 65.3784 345.8 66.1351C345.535 66.9189 345.137 67.5676 344.634 68.1351C344.131 68.7027 343.522 69.1622 342.78 69.4865C342.065 69.8108 341.218 69.973 340.291 69.973C339.364 69.973 338.543 69.8108 337.828 69.4865C337.086 69.1622 336.477 68.7027 335.974 68.1351C335.471 67.5676 335.073 66.8919 334.809 66.1351C334.544 65.3784 334.411 64.5405 334.411 63.6486C334.411 62.7568 334.544 61.8919 334.809 61.1081Z" fill="#14156D"/>
<path d="M351.361 57.5135L356.34 65.7027H356.367V57.5135H358.856V69.7027H356.208L351.229 61.5405H351.202V69.7027H348.739V57.5135H351.361Z" fill="#14156D"/>
<path d="M371.622 57.5135H369V69.7297H371.622V57.5135Z" fill="#14156D"/>
<path d="M377.316 57.5135L382.295 65.7027H382.348V57.5135H384.811V69.7027H382.163L377.183 61.5405H377.157V69.7027H374.694V57.5135H377.316Z" fill="#14156D"/>
<path d="M392.836 67.4595C393.206 67.4595 393.577 67.4054 393.948 67.2703C394.292 67.1351 394.61 66.9459 394.901 66.6486C395.166 66.3513 395.405 65.973 395.564 65.5135C395.749 65.0541 395.828 64.4865 395.828 63.8108C395.828 63.1892 395.775 62.6486 395.643 62.1351C395.537 61.6486 395.325 61.2162 395.06 60.8649C394.796 60.5135 394.451 60.2432 394.001 60.054C393.551 59.8649 393.021 59.7838 392.359 59.7838H390.479V67.4865H392.836V67.4595ZM393.021 57.5135C393.789 57.5135 394.504 57.6486 395.166 57.8919C395.828 58.1351 396.411 58.5135 396.888 59.027C397.365 59.5135 397.762 60.1622 398.027 60.9189C398.291 61.6757 398.424 62.5676 398.424 63.5676C398.424 64.4595 398.318 65.2703 398.08 66.027C397.868 66.7838 397.523 67.4324 397.073 67.973C396.623 68.5135 396.067 68.9459 395.378 69.2703C394.69 69.5946 393.895 69.7297 392.995 69.7297H387.83V57.5135H393.021Z" fill="#14156D"/>
<path d="M409.839 68.7838C408.938 69.5946 407.667 70 406.078 70C404.462 70 403.191 69.5946 402.317 68.8108C401.417 68.027 400.993 66.7838 400.993 65.1081V57.5135H403.615V65.1081C403.615 65.4324 403.641 65.7568 403.694 66.0811C403.747 66.4054 403.88 66.6757 404.039 66.9189C404.224 67.1622 404.462 67.3784 404.78 67.5135C405.098 67.6757 405.522 67.7568 406.051 67.7568C406.978 67.7568 407.64 67.5405 407.985 67.1081C408.356 66.6757 408.514 66.027 408.514 65.1081V57.5135H411.136V65.1081C411.216 66.7567 410.739 67.973 409.839 68.7838Z" fill="#14156D"/>
<path d="M416.221 66.7027C416.354 67 416.566 67.2162 416.804 67.4054C417.042 67.5676 417.334 67.7027 417.652 67.8108C417.969 67.8919 418.314 67.9459 418.658 67.9459C418.896 67.9459 419.135 67.9189 419.4 67.8919C419.664 67.8649 419.929 67.7838 420.168 67.6486C420.406 67.5405 420.591 67.3784 420.75 67.1892C420.909 67 420.989 66.7297 420.989 66.4324C420.989 66.1081 420.883 65.8378 420.671 65.6216C420.459 65.4054 420.194 65.2432 419.85 65.1081C419.505 64.973 419.135 64.8649 418.711 64.7568C418.287 64.6486 417.863 64.5405 417.413 64.4054C416.963 64.2973 416.539 64.1622 416.115 63.973C415.692 63.8108 415.321 63.5946 414.977 63.3243C414.632 63.0541 414.368 62.7297 414.156 62.3514C413.944 61.9459 413.838 61.4865 413.838 60.9189C413.838 60.2973 413.97 59.7568 414.235 59.2973C414.5 58.8378 414.844 58.4595 415.268 58.1351C415.692 57.8378 416.168 57.5946 416.698 57.4595C417.228 57.3243 417.758 57.2432 418.314 57.2432C418.949 57.2432 419.532 57.3243 420.115 57.4595C420.697 57.5946 421.2 57.8378 421.651 58.1622C422.101 58.4865 422.445 58.8919 422.71 59.3784C422.975 59.8649 423.107 60.4595 423.107 61.1892H420.565C420.538 60.8378 420.459 60.5135 420.353 60.2703C420.221 60.027 420.062 59.8378 419.85 59.7027C419.638 59.5676 419.4 59.4595 419.108 59.4054C418.843 59.3514 418.526 59.3243 418.208 59.3243C417.996 59.3243 417.784 59.3514 417.572 59.3784C417.36 59.4324 417.175 59.5135 416.989 59.6216C416.804 59.7297 416.672 59.8919 416.566 60.0541C416.46 60.2162 416.407 60.4324 416.407 60.7027C416.407 60.9459 416.46 61.1351 416.539 61.2703C416.619 61.4054 416.804 61.5405 417.069 61.6757C417.334 61.8108 417.705 61.9189 418.155 62.0541C418.631 62.1892 419.214 62.3514 419.982 62.5405C420.194 62.5946 420.512 62.6757 420.909 62.7838C421.306 62.8919 421.704 63.1081 422.101 63.3513C422.498 63.6216 422.816 63.973 423.107 64.4054C423.399 64.8378 423.531 65.4054 423.531 66.0811C423.531 66.6486 423.425 67.1622 423.213 67.6486C423.001 68.1351 422.684 68.5405 422.26 68.8919C421.836 69.2432 421.333 69.5135 420.697 69.7027C420.088 69.8919 419.347 70 418.552 70C417.89 70 417.254 69.9189 416.645 69.7568C416.036 69.5946 415.48 69.3243 415.003 68.973C414.526 68.6216 414.156 68.1622 413.864 67.6216C413.573 67.0811 413.441 66.4324 413.467 65.6757H416.01C416.01 66.0811 416.089 66.4324 416.221 66.7027Z" fill="#14156D"/>
<path d="M424.908 59.7568V57.5135H434.707V59.7568H431.132V69.7027H428.51V59.7568H424.908Z" fill="#14156D"/>
<path d="M442.361 63.027C442.971 63.027 443.421 62.8919 443.712 62.6216C444.003 62.3513 444.162 61.8919 444.162 61.2973C444.162 60.7027 444.003 60.2703 443.712 60C443.421 59.7297 442.971 59.5946 442.361 59.5946H439.475V63.027H442.361ZM443.288 57.5135C443.818 57.5135 444.321 57.5946 444.745 57.7838C445.169 57.973 445.54 58.1892 445.857 58.5135C446.175 58.8108 446.387 59.1892 446.572 59.5946C446.731 60 446.811 60.4324 446.811 60.8919C446.811 61.6216 446.652 62.2432 446.361 62.7568C446.069 63.2703 445.593 63.6757 444.904 63.9459V63.973C445.222 64.0541 445.487 64.2162 445.698 64.3784C445.91 64.5676 446.096 64.7838 446.228 65.0541C446.361 65.3243 446.466 65.5946 446.519 65.8919C446.572 66.1892 446.625 66.5135 446.652 66.8108C446.678 67 446.678 67.2162 446.678 67.4865C446.678 67.7568 446.705 68 446.731 68.2973C446.758 68.5676 446.811 68.8378 446.864 69.0811C446.917 69.3243 447.023 69.5405 447.129 69.7027H444.507C444.374 69.3243 444.268 68.8649 444.242 68.3243C444.215 67.7838 444.162 67.2703 444.083 66.7838C444.003 66.1351 443.792 65.6757 443.527 65.3784C443.235 65.0811 442.759 64.9459 442.097 64.9459H439.475V69.7027H436.853V57.4865H443.288V57.5135Z" fill="#14156D"/>
<path d="M447.791 57.5135H450.731L453.538 62.3243L456.319 57.5135H459.258L454.809 65.027V69.7027H452.187V64.973L447.791 57.5135Z" fill="#14156D"/>
</g>
<defs>
<clipPath id="clip0_1166_2945">
<rect width="459" height="60" fill="white" transform="translate(1 10)"/>
</clipPath>
</defs>
</svg>
